<svg xmlns="http://www.w3.org/2000/svg" viewBox="0 0 128 128">
  <defs>
    <linearGradient id="gold" x1="0%" y1="0%" x2="100%" y2="100%">
      <stop offset="0%" stop-color="#ffe27a"/>
      <stop offset="45%" stop-color="#ffd11a"/>
      <stop offset="100%" stop-color="#c78b00"/>
    </linearGradient>
  </defs>
  <circle cx="64" cy="64" r="60" fill="#050505" stroke="url(#gold)" stroke-width="7"/>
  <path d="M17 56h13v-7h6v30h-6v-7H17z" fill="#0d0d0d" stroke="url(#gold)" stroke-width="2"/>
  <rect x="30" y="44" width="8" height="40" rx="2" fill="url(#gold)"/>
  <rect x="39" y="38" width="10" height="52" rx="2" fill="url(#gold)"/>
  <rect x="50" y="31" width="12" height="66" rx="2" fill="url(#gold)"/>
  <rect x="62" y="51" width="18" height="6" rx="3" fill="#ffffff"/>
  <path d="M79 54c10-10 27-8 34 4 4 7 5 15 8 22 3 8 6 15 5 24-1 6-12 10-18 7-7-4-11-12-14-19-3-8-4-16-8-23-3-4-7-8-12-9-5-2-9-3-14 0-2 2-5 4-9 4 3-12 16-18 28-16z" fill="#ffffff"/>
  <path d="M60 82c16-7 40-7 58 0" fill="none" stroke="url(#gold)" stroke-width="5" stroke-linecap="round"/>
  <text x="64" y="104" text-anchor="middle" font-size="27" font-family="Arial, Helvetica, sans-serif" font-weight="900" fill="#ffffff">GYM</text>
</svg>
